<svg width="6" height="8" viewBox="0 0 6 8" fill="none" xmlns="http://www.w3.org/2000/svg">
<path fill-rule="evenodd" clip-rule="evenodd" d="M2.3043 1.62716C2.56343 1.47486 2.86809 1.41919 3.16433 1.47001C3.46057 1.52082 3.72927 1.67484 3.92283 1.90478C4.1164 2.13472 4.22234 2.42574 4.22189 2.72631L4.22189 2.72726C4.22189 3.0258 3.98956 3.33703 3.55072 3.62959C3.35067 3.76296 3.14608 3.8657 2.98901 3.93552C2.91137 3.97002 2.84756 3.9955 2.80465 4.01185C2.78325 4.02 2.76721 4.02582 2.75742 4.0293L2.74726 4.03286C2.41427 4.14426 2.23439 4.50439 2.34546 4.83759C2.4566 5.171 2.81698 5.3512 3.1504 5.24006L2.94916 4.63635C3.1504 5.24006 3.15101 5.23985 3.1512 5.23979L3.15217 5.23946L3.15465 5.23863L3.16169 5.23622L3.18379 5.22848C3.20197 5.22202 3.22694 5.21293 3.25774 5.20119C3.31923 5.17777 3.40457 5.14359 3.50591 5.09855C3.70679 5.00927 3.97948 4.87338 4.2567 4.68856C4.77231 4.34483 5.49433 3.7017 5.49462 2.72784C5.49543 2.12684 5.28355 1.54493 4.8965 1.08514C4.50937 0.625258 3.97198 0.317225 3.3795 0.215599C2.78701 0.113973 2.17769 0.225312 1.65943 0.529896C1.14117 0.83448 0.747434 1.31265 0.547952 1.87972C0.431324 2.21126 0.605544 2.57457 0.937083 2.6912C1.26862 2.80783 1.63193 2.63361 1.74856 2.30207C1.8483 2.01853 2.04517 1.77945 2.3043 1.62716ZM3.63642 7.18181C3.63642 7.53326 3.35151 7.81817 3.00005 7.81817C2.6486 7.81817 2.36369 7.53326 2.36369 7.18181C2.36369 6.83035 2.6486 6.54544 3.00005 6.54544C3.35151 6.54544 3.63642 6.83035 3.63642 7.18181Z" fill="#FF862F"/>
</svg>
