<svg width="32" height="23" viewBox="0 0 32 23" fill="none" xmlns="http://www.w3.org/2000/svg">
<path fill-rule="evenodd" clip-rule="evenodd" d="M5.08411 19.9734C9.11043 19.9734 9.86916 16.4269 9.86916 13.5874C10.3474 13.5874 14.1267 13.5874 15.8505 13.5874C25.2271 13.5874 25.2295 0.297485 16.1495 0.297485C13.6798 0.297485 12.0891 1.79737 11.6633 2.31986C6.59708 2.31986 5.98131 4.97168 5.98131 10.1208C5.98131 11.1141 5.98131 14.3432 5.98131 14.8406C5.98131 16.0513 5.49563 16.8367 4.18662 16.8367C3.06901 16.8367 2.53967 15.8454 2.09316 14.4541C1.86049 14.5793 0.22669 15.4646 0 15.6098C0.494354 16.9996 1.0237 19.9734 5.08411 19.9734ZM10.7765 8.09809C12.3104 8.09809 12.4408 10.4094 10.668 10.4094C9.17353 10.4094 9.21241 8.09809 10.7765 8.09809ZM16.1498 15.0243C14.8534 15.0243 11.0654 14.743 11.0654 14.743V21.8686L14.6542 21.9199L15.5514 16.7654L26.9159 16.5515L27.2153 22.2028L31.4022 22.2545C31.4022 22.2545 32 11.1854 32 8.96482C32 4.84591 30.1604 2.51466 26.0187 2.31986C24.9809 2.27109 23.6232 2.07715 22.729 2.03095C26.6267 6.78216 23.5254 15.0243 16.1498 15.0243ZM23.3274 17.9134L23.6262 22.1002L26.0187 22.1518L25.7196 17.9134H23.3274ZM15.8505 21.9718L18.243 22.0232L18.8408 17.9134H16.7474L15.8505 21.9718Z" fill="#FF862F"/>
</svg>
